<?xml version="1.0" encoding="UTF-8"?>
<svg id="Layer_1" xmlns="http://www.w3.org/2000/svg" xmlns:xlink="http://www.w3.org/1999/xlink" version="1.1" viewBox="0 0 71.9 72.2">
  <!-- Generator: Adobe Illustrator 30.1.0, SVG Export Plug-In . SVG Version: 2.1.1 Build 136)  -->
  <defs>
    <style>
      .st0 {
        fill: none;
      }

      .st1 {
        fill: #231f20;
      }

      .st2 {
        clip-path: url(#clippath-1);
      }

      .st3 {
        clip-path: url(#clippath-3);
      }

      .st4 {
        clip-path: url(#clippath-4);
      }

      .st5 {
        clip-path: url(#clippath-2);
      }

      .st6 {
        clip-path: url(#clippath);
      }
    </style>
    <clipPath id="clippath">
      <rect class="st0" x="8.5" y="60.4" width="9" height="8.1"/>
    </clipPath>
    <clipPath id="clippath-1">
      <rect class="st0" x="17.2" y="60.4" width="12.9" height="8.1"/>
    </clipPath>
    <clipPath id="clippath-2">
      <rect class="st0" x="30" y="60.4" width="5.5" height="8.1"/>
    </clipPath>
    <clipPath id="clippath-3">
      <rect class="st0" x="34.8" y="60.4" width="5.7" height="8.1"/>
    </clipPath>
    <clipPath id="clippath-4">
      <rect class="st0" x="39.6" y="60.4" width="25.4" height="8.1"/>
    </clipPath>
  </defs>
  <polygon class="st1" points="51.6 56.6 8.5 56.6 8.5 2.8 16 2.8 16 49.3 16 49.3 16 50.1 47.3 50.1 51.6 56.6"/>
  <polygon class="st1" points="63.1 56.6 53.8 56.6 33.7 28.5 26.1 36.1 26.1 47.7 19 47.7 19 2.8 26.1 2.8 26.1 26.4 49.7 2.8 59 2.8 38.8 23.3 63.1 56.6"/>
  <g>
    <g class="st6">
      <g>
        <path class="st1" d="M10.1,61.5v5.1h-.8v-5.1s.8,0,.8,0Z"/>
        <path class="st1" d="M11.8,66.6v-5.1h1.1c.9,1.2,2.7,3.7,3.1,4.3h0c0-.7,0-1.5,0-2.3v-2h.8v5.1h-1c-.8-1.1-2.8-3.8-3.1-4.4h0c0,.6,0,1.4,0,2.4v2h-.8,0Z"/>
      </g>
    </g>
    <g class="st2">
      <g>
        <path class="st1" d="M18,66.6v-5.1h1.1c.9,1.2,2.7,3.7,3.1,4.3h0c0-.7,0-1.5,0-2.3v-2h.8v5.1h-1c-.8-1.1-2.8-3.8-3.1-4.4h0c0,.6,0,1.4,0,2.4v2h-.8,0Z"/>
        <path class="st1" d="M29.7,64c0,1.4-.9,2.7-2.8,2.7s-2.8-1.2-2.8-2.6,1-2.6,2.8-2.6,2.8,1.1,2.8,2.6h0ZM25,64c0,1.1.7,2.1,2,2.1s2-1,2-2.1-.6-2-2-2-2,.9-2,2h0Z"/>
      </g>
    </g>
    <g class="st5">
      <path class="st1" d="M32.3,66.6l-2.2-5.1h.9l1.1,2.5c.3.8.6,1.5.8,2h0c.1-.4.5-1.2.8-1.9l1.1-2.6h.8l-2.3,5.1h-.9Z"/>
    </g>
    <g class="st3">
      <path class="st1" d="M36.4,65.1l-.6,1.5h-.8l2.1-5.1h1l2.2,5.1h-.9l-.7-1.5h-2.4,0ZM38.6,64.5c-.6-1.3-.9-2.1-1-2.4h0c-.1.4-.5,1.3-1,2.4h2,0Z"/>
    </g>
    <g class="st4">
      <g>
        <path class="st1" d="M41.6,62.1h-1.9v-.6h4.7v.6h-2v4.5h-.8v-4.5Z"/>
        <path class="st1" d="M46,61.5v5.1h-.8v-5.1s.8,0,.8,0Z"/>
        <path class="st1" d="M52.8,64c0,1.4-.9,2.7-2.8,2.7s-2.8-1.2-2.8-2.6,1-2.6,2.8-2.6,2.8,1.1,2.8,2.6h0ZM48.1,64c0,1.1.7,2.1,2,2.1s2-1,2-2.1-.6-2-2-2-2,.9-2,2h0Z"/>
        <path class="st1" d="M54.1,66.6v-5.1h1.1c.9,1.2,2.7,3.7,3.1,4.3h0c0-.7,0-1.5,0-2.3v-2h.8v5.1h-1c-.8-1.1-2.8-3.8-3.1-4.4h0c0,.6,0,1.4,0,2.4v2h-.8,0Z"/>
        <path class="st1" d="M60.9,65.2c.2.6.7.9,1.5.9s1.3-.4,1.3-.9-.3-.8-1.5-1c-1.4-.3-1.9-.7-1.9-1.4s.7-1.4,2-1.4,2,.7,2.1,1.4h-.8c-.1-.4-.4-.8-1.3-.8s-1.1.3-1.1.8.3.7,1.4.9c1.7.3,2,.9,2,1.6s-.7,1.5-2.2,1.5-2.2-.7-2.3-1.5h.8,0Z"/>
      </g>
    </g>
    <rect class="st0" x="8.5" y="60.4" width="56.5" height="8.1"/>
  </g>
</svg>