<?xml version="1.0" encoding="UTF-8"?>
<svg id="Layer_1" data-name="Layer 1" xmlns="http://www.w3.org/2000/svg" viewBox="0 0 166.91 166.47">
  <defs>
    <style>
      .cls-1 {
        fill: #fff;
        stroke: #000;
        stroke-miterlimit: 10;
        stroke-width: .91px;
      }
    </style>
  </defs>
  <path class="cls-1" d="M134.92,31.96H30.53v104.39h104.4V31.96Z"/>
  <path d="M84.07,82.25v-33.17h15.44c9.81,0,16.53,7.14,16.53,16.59-.05,9.45-6.71,16.59-16.53,16.59h-15.44ZM88.12,79.23h11.48c7.58,0,12.58-5.67,12.58-13.33s-5-13.33-12.58-13.33h-11.48v26.65Z"/>
  <path d="M83.98,119.2v-33.07h3.91v14.88h23.06v-14.88h3.91v33.07h-3.91v-14.94h-23.06v14.94h-3.91Z"/>
  <path d="M49.42,119.22v-33.11h3.91v19.68l5.63-5.25,16.64-14.42h5.82l-17.5,14.94,18.31,18.16h-5.19l-15.92-15.75-7.77,6.62v9.12h-3.91Z"/>
  <polygon points="80.02 78.99 80.02 82.25 49.42 82.25 49.42 49.14 53.38 49.14 53.38 78.98 53.37 78.99 80.02 78.99"/>
</svg>